<svg version="1.2" xmlns="http://www.w3.org/2000/svg" viewBox="0 0 2200 2200" width="500" height="500">
	<title>77972574_Avatars Circles Glyph Style</title>
	<style>
		.s0 { fill: #ffd500 } 
		.s1 { fill: #262626 } 
	</style>
	<g id="Objects">
		<g id="&lt;Group&gt;">
			<path id="&lt;Path&gt;" class="s0" d="m2199.9 1100c0 291.1-113 555.7-297.6 752.4-200.6 213.9-485.9 347.6-802.4 347.6-316.4 0-601.7-133.7-802.3-347.6-184.6-196.7-297.6-461.3-297.6-752.4 0-607.5 492.5-1099.9 1099.9-1099.9 607.5 0 1100 492.4 1100 1099.9z"/>
			<path id="&lt;Path&gt;" class="s1" d="m1483.7 658.3c0-106.1-42.9-202-112.3-271.4-69.5-69.5-165.4-112.4-271.5-112.4-212.1 0-383.7 171.7-383.7 383.8v65c-57.9 0-104.6 46.8-104.6 104.7 0 57.9 46.7 104.6 104.6 104.6 0 129.8 64.5 244.6 163.3 314l-7.3 32.8c-16.1 72.9-68.8 131.2-137.8 154.2-3.9 1.4-7.7 2.4-11.6 3.5l-207.2 55.8c-128.7 34.5-218 152.4-218 286.7v72.8c200.6 213.9 485.9 347.6 802.3 347.6 316.5 0 601.8-133.7 802.4-347.6v-72.8c0-134.3-89.3-252.2-218-286.7l-207.2-55.8c-3.9-1.1-7.7-2.1-11.6-3.5-69-23-121.7-81.3-137.8-154.2l-7.3-32.8c98.8-69.4 163.3-184.2 163.3-314 57.9 0 104.6-46.7 104.6-104.6 0-57.9-46.7-104.7-104.6-104.7z"/>
		</g>
	</g>
</svg>